# xmcd CD database file
#
# Track frame offsets:
#	150
#	13052
#	29810
#	43993
#	55094
#	71270
#	86298
#	98965
#	120254
#
# Disc length: 1776 seconds
#
# Revision: 0
# Processed by: cddbd v1.5.2PL0 Copyright (c) Steve Scherf et al.
# Submitted via: CDex 1.75
#
DISCID=6f06ee09
DTITLE=Monguito Santamaria - Blackout
DYEAR=1970
DGENRE=Salsa
TTITLE0=Crying Time
TTITLE1=Asi Sere Para Ti
TTITLE2=Guarara
TTITLE3=You Need Help
TTITLE4=Sueno Contigo
TTITLE5=Todo Es Todo
TTITLE6=I've Got To Find
TTITLE7=Son Del Monte
TTITLE8=All Your Talk
EXTD=YEAR: 1970
EXTT0=
EXTT1=
EXTT2=
EXTT3=
EXTT4=
EXTT5=
EXTT6=
EXTT7=
EXTT8=
PLAYORDER=
